<?xml version="1.0" encoding="UTF-8" standalone="no"?>
<svg
   xmlns:dc="http://purl.org/dc/elements/1.1/"
   xmlns:cc="http://creativecommons.org/ns#"
   xmlns:rdf="http://www.w3.org/1999/02/22-rdf-syntax-ns#"
   xmlns:svg="http://www.w3.org/2000/svg"
   xmlns="http://www.w3.org/2000/svg"
   xmlns:sodipodi="http://sodipodi.sourceforge.net/DTD/sodipodi-0.dtd"
   xmlns:inkscape="http://www.inkscape.org/namespaces/inkscape"
   width="38.93586"
   height="37.771214"
   viewBox="0 0 38.93586 37.771214"
   version="1.1"
   id="svg10"
   sodipodi:docname="connect_40x40.svg"
   inkscape:version="1.0.2 (e86c870879, 2021-01-15)">
  <metadata
     id="metadata16">
    <rdf:RDF>
      <cc:Work
         rdf:about="">
        <dc:format>image/svg+xml</dc:format>
        <dc:type
           rdf:resource="http://purl.org/dc/dcmitype/StillImage" />
      </cc:Work>
    </rdf:RDF>
  </metadata>
  <defs
     id="defs14" />
  <sodipodi:namedview
     pagecolor="#ffffff"
     bordercolor="#666666"
     borderopacity="1"
     objecttolerance="10"
     gridtolerance="10"
     guidetolerance="10"
     inkscape:pageopacity="0"
     inkscape:pageshadow="2"
     inkscape:window-width="1920"
     inkscape:window-height="1017"
     id="namedview12"
     showgrid="false"
     inkscape:zoom="12.020815"
     inkscape:cx="19.535144"
     inkscape:cy="26.896974"
     inkscape:window-x="1912"
     inkscape:window-y="-8"
     inkscape:window-maximized="1"
     inkscape:current-layer="svg10" />
  <g
     fill="none"
     fill-rule="evenodd"
     id="g8"
     transform="scale(0.77871717,0.75542424)">
    <rect
       width="50"
       height="50"
       fill-opacity="0"
       rx="2"
       id="rect2"
       x="0"
       y="0" />
    <g
       fill="#ffffff"
       id="g6">
      <path
         d="m 17.816,24.917 a 3.908,3.908 0 1 1 -7.816,0 3.908,3.908 0 0 1 7.816,0 m 11.014,0 a 3.908,3.908 0 1 1 -7.816,0 3.908,3.908 0 0 1 7.816,0 m 0,-11.009 a 3.908,3.908 0 1 1 -7.816,0 3.908,3.908 0 0 1 7.816,0 m 0,22.027 a 3.908,3.908 0 1 1 -7.816,0 3.908,3.908 0 0 1 7.816,0 M 39.843,24.917 a 3.908,3.908 0 1 1 -7.816,0 3.908,3.908 0 0 1 7.816,0"
         id="path4" />
    </g>
  </g>
</svg>
