<svg xmlns="http://www.w3.org/2000/svg" width="50" height="50" viewBox="0 0 50 50">
    <g fill="none" fill-rule="evenodd">
        <rect width="50" height="50" fill-opacity="0.0" rx="2"/>
        <g fill="#FFF">
            <path d="M17.816 24.917a3.908 3.908 0 1 1-7.816 0 3.908 3.908 0 0 1 7.816 0M28.83 24.917a3.908 3.908 0 1 1-7.816 0 3.908 3.908 0 0 1 7.816 0M28.83 13.908a3.908 3.908 0 1 1-7.816 0 3.908 3.908 0 0 1 7.816 0M28.83 35.935a3.908 3.908 0 1 1-7.816 0 3.908 3.908 0 0 1 7.816 0M39.843 24.917a3.908 3.908 0 1 1-7.816 0 3.908 3.908 0 0 1 7.816 0"/>
        </g>
    </g>
</svg>
