<svg width="250" height="57" viewBox="0 0 250 57" xmlns="http://www.w3.org/2000/svg" xmlns:xlink="http://www.w3.org/1999/xlink"><title>346D6E4E-7CA8-4EB4-A4AE-EA07C0C7DD7B</title><defs><path id="a" d="M56.693 56.8H0V.107h56.693z"/><path id="c" d="M0 56.893h249.876V.2H0z"/></defs><g fill="none" fill-rule="evenodd"><g transform="translate(0 .093)"><mask id="b" fill="#fff"><use xlink:href="#a"/></mask><path d="M54.921 56.8H1.771a1.772 1.772 0 0 1-1.77-1.772V1.878C0 .9.792.109 1.77.109h53.15c.979 0 1.772.792 1.772 1.77v53.15c0 .979-.793 1.772-1.772 1.772" fill="#EC0000" mask="url(#b)"/></g><mask id="d" fill="#fff"><use xlink:href="#c"/></mask><path fill="#000" mask="url(#d)" d="M205.972 46.49h7.117V10.884h-7.117zM231.626 10.885c2.908 0 5.49.5 7.747 1.5 2.255 1 4.16 2.332 5.716 3.993a17.358 17.358 0 0 1 3.56 5.696 18.325 18.325 0 0 1 1.227 6.613c0 2.271-.4 4.475-1.203 6.612a17.024 17.024 0 0 1-3.535 5.697c-1.554 1.661-3.468 2.993-5.741 3.993-2.273 1-4.863 1.5-7.771 1.5h-11.808V10.885h11.808zm-4.693 6.553v22.498h4.66c1.639 0 3.356-.297 4.643-.89s2.601-1.39 3.486-2.39c.886-1 1.648-2.136 2.116-3.408.468-1.272.759-3.17.759-4.561 0-1.356-.291-3.246-.759-4.535-.468-1.289-1.23-2.433-2.116-3.434-.885-.999-2.199-1.796-3.486-2.39-1.287-.593-3.004-.89-4.643-.89h-4.66zM90.337 10.366c6.892 0 10.896 4.091 12.658 7.253l-6.186 3.678c-.824-1.775-2.864-4.565-6.532-4.565-3.29 0-5.551 1.804-5.551 4.02 0 2.085 1.3 3.537 3.969 4.027l4.788.983c6.977 1.4 10.279 4.845 10.279 10.294 0 5.356-4.641 11.083-13.558 11.083-6.434 0-11.565-3.012-14.023-7.836l6.221-3.77c.868 1.744 3.313 5.23 7.723 5.23 3.557 0 5.998-1.755 5.998-4.095 0-2.13-1.483-3.588-4.386-4.144l-5.006-1.005c-5.983-1.246-9.482-5.148-9.482-10.326 0-6.257 5.341-10.827 13.088-10.827M127.543 21.79l4.36 15.615 4.27-15.614h6.965l-7.642 24.699h-6.57l-4.894-16.202-5.077 16.202h-6.324l-7.742-24.7h7.415l4.27 15.565 4.409-15.564zM146.317 46.49h6.846v-24.7h-6.846v24.7zm3.377-36.359c2.34 0 4.241 1.855 4.241 4.149s-1.9 4.148-4.241 4.148c-2.248 0-4.14-1.854-4.14-4.148 0-2.294 1.892-4.149 4.14-4.149zM172.082 29.2c-.735-1.386-2.194-2.705-4.293-2.705-1.836 0-3.395.812-3.395 2.235 0 1.333 1.172 1.863 2.448 2.095l3.757.797c4.652.949 7.265 3.64 7.265 7.193 0 4.12-3.681 8.334-10.301 8.334-5.91 0-8.668-2.97-10.037-5.085l5.288-3.378c.707 1.577 2.426 2.953 4.656 2.953 2.173 0 3.556-1.146 3.556-2.244 0-1.158-.8-1.805-2.798-2.237l-3.398-.727c-5.078-1.147-6.995-4.041-6.995-7.436 0-4.393 4.046-7.86 9.911-7.86 5.121 0 8.133 2.564 9.632 4.698l-5.296 3.366zM194.974 29.2c-.735-1.386-2.194-2.705-4.294-2.705-1.835 0-3.394.812-3.394 2.235 0 1.333 1.171 1.863 2.447 2.095l3.758.797c4.652.949 7.265 3.64 7.265 7.193 0 4.12-3.682 8.334-10.302 8.334-5.91 0-8.668-2.97-10.037-5.085l5.288-3.378c.707 1.577 2.426 2.953 4.656 2.953 2.174 0 3.557-1.146 3.557-2.244 0-1.158-.8-1.805-2.798-2.237l-3.398-.727c-5.078-1.147-6.996-4.041-6.996-7.436 0-4.393 4.046-7.86 9.911-7.86 5.122 0 8.134 2.564 9.632 4.698l-5.295 3.366z"/><path d="M19.488 28.54a4.872 4.872 0 1 1-9.744.001 4.872 4.872 0 0 1 9.744 0M33.218 28.54a4.872 4.872 0 1 1-9.743.001 4.872 4.872 0 0 1 9.743 0M33.218 14.816a4.872 4.872 0 1 1-9.743 0 4.872 4.872 0 0 1 9.743 0M33.218 42.277a4.872 4.872 0 1 1-9.743 0 4.872 4.872 0 0 1 9.743 0M46.949 28.54a4.872 4.872 0 1 1-9.744.001 4.872 4.872 0 0 1 9.744 0" fill="#FFF" mask="url(#d)"/></g></svg>